<svg width="16" height="16" viewBox="0 0 16 16" fill="none" xmlns="http://www.w3.org/2000/svg">
<path fill-rule="evenodd" clip-rule="evenodd" d="M12.72 8.28L8.6 12.4067C7.47873 13.4031 5.7751 13.353 4.71438 12.2923C3.65367 11.2316 3.60352 9.52793 4.6 8.40666L9.93334 3.07333C10.5946 2.44518 11.6321 2.44518 12.2933 3.07333C12.9389 3.72755 12.9389 4.77911 12.2933 5.43333L7.69334 10.0267C7.56948 10.16 7.38388 10.2172 7.20645 10.1766C7.02901 10.1361 6.8867 10.0039 6.83311 9.82998C6.77953 9.65603 6.82282 9.46671 6.94667 9.33333L10.3667 5.92C10.6281 5.65858 10.6281 5.23474 10.3667 4.97333C10.1053 4.71191 9.68142 4.71191 9.42 4.97333L6 8.4C5.65436 8.74296 5.45995 9.20974 5.45995 9.69666C5.45995 10.1836 5.65436 10.6504 6 10.9933C6.7261 11.685 7.86724 11.685 8.59334 10.9933L13.1867 6.39333C14.2881 5.21129 14.2556 3.36929 13.1132 2.22684C11.9707 1.08439 10.1287 1.05189 8.94667 2.15333L3.61334 7.48666C2.11918 9.14153 2.19252 11.6794 3.77976 13.2452C5.367 14.811 7.90559 14.8498 9.54 13.3333L13.6667 9.21333C13.8358 9.04422 13.9018 8.79775 13.8399 8.56674C13.778 8.33574 13.5976 8.15531 13.3666 8.09341C13.1356 8.03151 12.8891 8.09756 12.72 8.26666V8.28Z" fill="#091B3D" fill-opacity="0.4"/>
</svg>
