<svg width="24" height="24" viewBox="0 0 24 24" fill="none" xmlns="http://www.w3.org/2000/svg">
<path fill-rule="evenodd" clip-rule="evenodd" d="M8.72206 2.37931C5.57488 3.11753 3.11753 5.57488 2.37931 8.72206C1.87356 10.8781 1.87356 13.1219 2.37931 15.278C3.11753 18.4251 5.57488 20.8824 8.72207 21.6207C10.8781 22.1264 13.1219 22.1264 15.278 21.6207C18.4251 20.8824 20.8824 18.4251 21.6207 15.278C22.1264 13.1219 22.1264 10.8781 21.6207 8.72208C20.8824 5.57488 18.4251 3.11753 15.278 2.3793C13.1219 1.87356 10.8781 1.87356 8.72206 2.37931ZM14.8212 4.32646C17.2289 4.89121 19.1088 6.77113 19.6735 9.17881C20.1088 11.0345 20.1088 12.9655 19.6735 14.8212C19.1088 17.2289 17.2289 19.1088 14.8212 19.6735C12.9655 20.1088 11.0345 20.1088 9.17881 19.6735C6.77113 19.1088 4.89121 17.2289 4.32646 14.8212C3.89118 12.9655 3.89118 11.0345 4.32646 9.1788C4.89121 6.77114 6.77114 4.89121 9.1788 4.32646C10.9019 3.92227 12.6901 3.8934 14.4225 4.23984L14.8212 4.32646ZM15.4323 9.26895C15.0286 8.89211 14.3958 8.91393 14.0189 9.31768L11.225 12.31L9.95711 11.0429L9.8629 10.9597C9.47061 10.6547 8.90338 10.6824 8.5429 11.0429C8.15237 11.4334 8.15237 12.0666 8.5429 12.4571L10.5429 14.4571L10.6395 14.5421C11.0417 14.8531 11.6247 14.8141 11.9811 14.4323L15.4811 10.6823L15.561 10.5853C15.8523 10.1827 15.805 9.61679 15.4323 9.26895Z" fill="#091B3D" fill-opacity="0.4"/>
</svg>
