<svg width="24" height="24" viewBox="0 0 24 24" fill="none" xmlns="http://www.w3.org/2000/svg">
<path fill-rule="evenodd" clip-rule="evenodd" d="M17.9882 2H5.87979C3.44158 2 2.02175 4.7543 3.43617 6.74033L7.56554 12.5384C7.92745 13.0466 8.12193 13.6549 8.12193 14.2788V18.3293C8.12193 20.3566 9.76535 22 11.7926 22C13.8199 22 15.4633 20.3566 15.4633 18.3293V14.3385C15.4633 13.687 15.6754 13.0532 16.0676 12.5329L20.384 6.80562C21.874 4.82882 20.4637 2 17.9882 2ZM5.87979 4H17.9882C18.8134 4 19.2835 4.94292 18.7869 5.60186L14.4704 11.3291C13.8169 12.1962 13.4633 13.2526 13.4633 14.3385V18.3293C13.4633 19.252 12.7153 20 11.7926 20C10.8699 20 10.1219 19.252 10.1219 18.3293V14.2788C10.1219 13.2391 9.7978 12.2252 9.19464 11.3782L5.06525 5.58011C4.59377 4.9181 5.06705 4 5.87979 4Z" fill="#091B3D"/>
</svg>
