<svg width="24" height="24" viewBox="0 0 24 24" fill="none" xmlns="http://www.w3.org/2000/svg">
<path fill-rule="evenodd" clip-rule="evenodd" d="M15.7936 2.38043L16.0054 2.32343C16.8646 2.12188 17.7555 2.09627 18.6242 2.24777L18.9946 2.32343C20.238 2.61509 21.2321 3.5434 21.6196 4.79359L21.6766 5.00548C21.8781 5.86467 21.9037 6.75542 21.7469 7.65253L21.6766 7.99454C21.385 9.23793 20.4566 10.2321 19.2064 10.6196L18.9946 10.6766C18.1354 10.8781 17.2446 10.9037 16.3474 10.7468L16.0054 10.6766C14.7621 10.3849 13.7679 9.45659 13.3804 8.2064L13.3234 7.9945C13.0929 7.0115 13.0929 5.98848 13.3234 5.00544C13.6151 3.76205 14.5434 2.76793 15.7936 2.38043ZM18.566 4.27676L18.2807 4.21803C17.6774 4.11284 17.0588 4.13062 16.4964 4.26191L16.3527 4.30037C15.8127 4.46803 15.4001 4.9098 15.2706 5.4621C15.1105 6.14476 15.1105 6.85522 15.2619 7.50363L15.3004 7.64734C15.468 8.18731 15.9098 8.59984 16.434 8.72322L16.7194 8.78195C17.3226 8.88715 17.9412 8.86936 18.5036 8.73807L18.6473 8.69961C19.1874 8.53195 19.5999 8.09019 19.7232 7.56609L19.782 7.28069C19.8871 6.67738 19.8693 6.05878 19.7381 5.49635L19.6996 5.35265C19.532 4.81267 19.0902 4.40015 18.566 4.27676ZM5.00544 2.32343L4.7936 2.38043C3.5434 2.76793 2.61511 3.76204 2.32345 5.00543C2.09287 5.98846 2.09287 7.01152 2.32345 7.99456L2.38045 8.20641C2.76795 9.4566 3.76206 10.3849 5.00545 10.6766L5.34742 10.7468C6.24457 10.9037 7.13536 10.8781 7.99459 10.6766L8.20643 10.6196C9.45663 10.2321 10.3849 9.23795 10.6766 7.99456L10.7469 7.65259C10.9037 6.75543 10.8781 5.86464 10.6766 5.00542L10.6196 4.79357C10.2321 3.54338 9.23797 2.61508 7.99458 2.32343L7.62423 2.24777C6.75546 2.09627 5.86467 2.12188 5.00544 2.32343ZM7.28066 4.21803L7.56605 4.27676C8.09022 4.40015 8.53198 4.81266 8.69963 5.35266L8.73809 5.49637C8.86939 6.05881 8.88717 6.67737 8.78197 7.28064L8.72324 7.56603C8.59986 8.0902 8.18735 8.53196 7.64735 8.69961L7.50364 8.73807C6.9412 8.86937 6.32264 8.88715 5.71937 8.78195L5.43398 8.72322C4.90981 8.59984 4.46805 8.18733 4.3004 7.64733L4.26194 7.50362C4.11048 6.8552 4.11048 6.14478 4.2706 5.46216C4.40017 4.90979 4.81268 4.46803 5.35268 4.30037L5.49639 4.26191C6.05883 4.13062 6.67739 4.11284 7.28066 4.21803ZM5.00551 13.3234L4.79361 13.3804C3.54342 13.7679 2.61511 14.762 2.32345 16.0054C2.09287 16.9884 2.09287 18.0116 2.32345 18.9946L2.38046 19.2064C2.76795 20.4566 3.76208 21.3849 5.00547 21.6766L5.34748 21.7468C6.24459 21.9037 7.13534 21.8781 7.99452 21.6766L8.20642 21.6196C9.45661 21.2321 10.3849 20.238 10.6766 18.9946L10.7469 18.6526C10.9037 17.7554 10.8781 16.8646 10.6766 16.0054L10.6196 15.7936C10.2321 14.5434 9.23795 13.615 7.99456 13.3234L7.62418 13.2478C6.75545 13.0963 5.8647 13.1219 5.00551 13.3234ZM7.28071 15.2181L7.56611 15.2768C8.09021 15.4001 8.53198 15.8126 8.69963 16.3527L8.73809 16.4964C8.86939 17.0588 8.88717 17.6774 8.78197 18.2806L8.72324 18.566C8.59986 19.0902 8.18734 19.532 7.64736 19.6996L7.50366 19.7381C6.94123 19.8693 6.32262 19.8871 5.71932 19.7819L5.43392 19.7232C4.90982 19.5999 4.46806 19.1873 4.3004 18.6473L4.26194 18.5036C4.11048 17.8552 4.11048 17.1448 4.2706 16.4622C4.40017 15.9098 4.81269 15.468 5.35267 15.3004L5.49638 15.2619C6.0588 15.1307 6.67741 15.1129 7.28071 15.2181ZM16.0055 13.3234L15.7936 13.3804C14.5434 13.7679 13.6151 14.7621 13.3234 16.0054C13.0929 16.9885 13.0929 18.0115 13.3234 18.9945L13.3804 19.2064C13.7679 20.4566 14.7621 21.3849 16.0055 21.6766L16.3475 21.7468C17.2446 21.9037 18.1354 21.8781 18.9945 21.6766L19.2064 21.6196C20.4566 21.2321 21.385 20.2379 21.6766 18.9945L21.7469 18.6525C21.9037 17.7554 21.8781 16.8646 21.6766 16.0055L21.6196 15.7936C21.2321 14.5434 20.238 13.615 18.9946 13.3234L18.6242 13.2478C17.7555 13.0963 16.8647 13.1219 16.0055 13.3234ZM18.2807 15.2181L18.5661 15.2768C19.0902 15.4001 19.532 15.8127 19.6996 16.3526L19.7381 16.4964C19.8693 17.0588 19.8871 17.6774 19.782 18.2807L19.7232 18.5661C19.5999 19.0902 19.1873 19.532 18.6474 19.6996L18.5037 19.7381C17.9413 19.8693 17.3226 19.8871 16.7193 19.7819L16.4339 19.7232C15.9098 19.5999 15.468 19.1873 15.3004 18.6473L15.2619 18.5036C15.1105 17.8553 15.1105 17.1447 15.2706 16.4621C15.4001 15.9098 15.8127 15.468 16.3527 15.3004L16.4964 15.2619C17.0588 15.1307 17.6774 15.1129 18.2807 15.2181Z" fill="#F5B544"/>
</svg>
