<svg width="352" height="3" viewBox="0 0 352 3" fill="none" xmlns="http://www.w3.org/2000/svg">
<path d="M0 3C0 1.34315 1.34315 0 3 0H49C50.6569 0 52 1.34315 52 3H0Z" fill="#E6521F"/>
<path d="M60 3C60 1.34315 61.3431 0 63 0H109C110.657 0 112 1.34315 112 3H60Z" fill="#E6521F"/>
<path d="M120 3C120 1.34315 121.343 0 123 0H169C170.657 0 172 1.34315 172 3H120Z" fill="#F5B544"/>
<path d="M180 3C180 1.34315 181.343 0 183 0H229C230.657 0 232 1.34315 232 3H180Z" fill="#F5B544"/>
<path d="M240 3C240 1.34315 241.343 0 243 0H289C290.657 0 292 1.34315 292 3H240Z" fill="#4B9F47"/>
<path opacity="0.1" d="M300 3C300 1.34315 301.343 0 303 0H349C350.657 0 352 1.34315 352 3H300Z" fill="#091B3D"/>
</svg>
