<svg width="24" height="24" viewBox="0 0 24 24" fill="none" xmlns="http://www.w3.org/2000/svg">
<path fill-rule="evenodd" clip-rule="evenodd" d="M8.21422 2.4653L8.66809 2.36473C10.8628 1.87843 13.1372 1.87843 15.3319 2.36473L15.7857 2.4653C18.8809 3.15114 21.3211 5.5305 22.0851 8.60774C22.6383 10.8355 22.6383 13.1646 22.0851 15.3922C21.3211 18.4695 18.881 20.8489 15.7858 21.5347L15.3319 21.6353C13.1372 22.1216 10.8628 22.1216 8.66803 21.6353L8.21423 21.5347C5.11909 20.8489 2.67899 18.4696 1.91486 15.3923C1.36171 13.1646 1.36171 10.8354 1.91486 8.60776C2.67899 5.53049 5.11908 3.15114 8.21422 2.4653ZM15.353 4.41793L14.8993 4.31737C12.9896 3.89421 11.0104 3.89421 9.10076 4.31737L8.6469 4.41794C6.78434 4.83065 5.23364 6.04977 4.37947 7.70024H19.6205C18.7664 6.04978 17.2157 4.83065 15.353 4.41793ZM3.85591 14.9103C3.43167 13.2018 3.38669 11.4235 3.721 9.70024H20.279C20.6133 11.4236 20.5684 13.2017 20.1441 14.9102C19.5629 17.2508 17.7071 19.0605 15.3531 19.5821L14.8992 19.6827C12.9896 20.1058 11.0104 20.1058 9.10075 19.6827L8.64696 19.5821C6.29295 19.0605 4.43711 17.2509 3.85591 14.9103ZM12 12C12 11.4477 11.5523 11 11 11H7L6.88338 11.0067C6.38604 11.0645 6 11.4872 6 12C6 12.5523 6.44771 13 7 13H11L11.1166 12.9933C11.614 12.9355 12 12.5128 12 12Z" fill="#2772F0"/>
</svg>
